<?xml version="1.0" standalone="no"?>
<!DOCTYPE svg PUBLIC "-//W3C//DTD SVG 20010904//EN"
 "http://www.w3.org/TR/2001/REC-SVG-20010904/DTD/svg10.dtd">
<svg version="1.0" xmlns="http://www.w3.org/2000/svg"
 width="480.000000pt" height="380.000000pt" viewBox="0 0 480.000000 380.000000"
 preserveAspectRatio="xMidYMid meet">

<g transform="translate(0.000000,380.000000) scale(0.100000,-0.100000)"
fill="#000000" stroke="none">
<path d="M2112 3674 c-5 -9 -5 -34 -1 -58 5 -22 8 -67 9 -99 l0 -57 -41 42
c-22 24 -48 53 -56 66 -17 25 -51 29 -59 7 -3 -8 -1 -38 5 -67 7 -29 14 -74
17 -101 6 -48 5 -48 -18 -36 -13 7 -32 14 -44 15 -11 1 -40 8 -64 14 -39 10
-45 10 -57 -6 -7 -10 -13 -24 -13 -32 0 -21 59 -76 105 -98 37 -17 38 -18 14
-27 -13 -5 -32 -13 -41 -18 -33 -17 -103 -39 -125 -39 -39 0 -53 -11 -53 -41
0 -28 0 -28 50 -22 55 6 60 1 30 -31 -12 -12 -33 -35 -48 -51 -37 -43 -94 -83
-128 -91 -16 -4 -39 -14 -51 -21 -26 -17 -56 -10 -81 20 -10 12 -30 33 -44 46
-25 22 -29 23 -76 10 l-50 -12 -10 -66 c-10 -64 -9 -67 17 -96 30 -35 44 -58
84 -140 33 -70 96 -165 109 -165 5 0 13 -11 18 -25 5 -14 17 -28 25 -31 8 -4
15 -11 15 -18 0 -7 18 -31 39 -54 22 -23 43 -51 46 -62 4 -11 13 -20 20 -20 8
0 31 -11 51 -25 41 -28 64 -31 82 -13 22 22 12 88 -13 88 -7 0 -29 13 -50 30
-20 16 -52 32 -71 36 -21 4 -44 18 -60 38 -48 59 -131 191 -157 251 -28 62
-49 144 -41 156 2 4 -2 9 -8 12 -10 4 -10 7 0 18 10 11 16 11 30 1 40 -29 100
-52 139 -52 52 0 93 15 93 34 0 8 14 23 30 33 17 9 30 20 30 24 0 10 73 79 83
79 5 0 24 13 42 28 24 22 47 31 90 36 32 3 60 4 63 1 3 -3 -1 -23 -8 -45 -12
-36 -26 -59 -72 -113 -10 -11 -18 -31 -18 -44 0 -21 3 -23 23 -17 12 4 38 20
57 35 19 16 40 29 47 29 7 0 13 5 13 10 0 6 9 10 19 10 11 0 23 5 26 10 3 6
11 10 17 10 7 0 8 -34 3 -110 -6 -97 -5 -110 9 -110 9 0 16 8 16 20 0 11 4 20
8 20 5 0 21 27 35 61 16 37 31 59 39 57 19 -7 30 -75 18 -116 -15 -58 5 -65
46 -17 18 22 34 43 34 48 0 4 9 7 20 7 12 0 26 12 35 30 20 38 58 64 84 55 31
-9 62 -88 55 -136 -5 -30 -15 -44 -48 -66 -35 -24 -51 -28 -111 -28 l-70 0 -3
-31 c-3 -27 1 -33 25 -39 36 -9 123 -65 123 -79 -1 -6 -26 -23 -57 -38 -41
-20 -60 -25 -74 -18 -29 16 -59 12 -59 -7 1 -41 32 -58 129 -69 34 -3 61 -9
61 -12 0 -9 -64 -63 -95 -80 -16 -8 -55 -17 -85 -19 -30 -3 -65 -11 -77 -19
-13 -8 -23 -11 -23 -8 0 4 -9 -1 -20 -11 -11 -10 -28 -15 -40 -12 -11 3 -23 1
-26 -4 -3 -5 -15 -9 -27 -9 -12 0 -28 -9 -34 -19 -10 -16 -18 -18 -47 -11 -43
10 -86 2 -93 -17 -11 -27 -54 -63 -76 -63 -12 0 -28 -9 -35 -20 -7 -12 -18
-20 -25 -18 -15 3 -156 -52 -163 -64 -3 -4 -13 -8 -22 -8 -9 0 -30 -7 -46 -15
-16 -8 -54 -23 -85 -32 -31 -9 -72 -26 -91 -37 -33 -21 -113 -54 -190 -79 -19
-6 -38 -16 -42 -21 -4 -6 -16 -6 -33 2 -21 10 -32 9 -55 -3 -16 -8 -34 -15
-40 -15 -7 0 -25 -9 -41 -21 -16 -11 -29 -18 -29 -14 0 3 -13 -1 -29 -9 -18
-10 -42 -13 -65 -9 -25 4 -42 1 -54 -9 -9 -9 -27 -19 -38 -22 -37 -11 -55 -41
-65 -111 -11 -67 -8 -83 24 -155 20 -45 72 -88 113 -95 22 -4 50 -12 63 -18
19 -9 25 -8 36 6 7 11 19 15 29 11 10 -4 25 1 35 10 23 21 160 80 276 118 50
16 104 36 120 43 37 16 205 52 205 43 0 -5 -26 -72 -39 -103 -25 -57 -30 -70
-35 -105 -4 -22 -14 -39 -29 -46 -12 -7 -40 -21 -62 -32 -22 -12 -75 -26 -118
-31 -93 -13 -133 0 -139 46 -5 42 -26 39 -39 -6 -7 -23 -15 -41 -18 -41 -3 0
-17 9 -31 20 -54 42 -63 10 -15 -55 12 -16 25 -38 28 -48 5 -15 2 -16 -21 -11
-15 4 -37 13 -49 20 -12 8 -27 14 -33 14 -21 0 -5 -43 21 -59 14 -9 41 -26 60
-38 19 -13 37 -23 42 -23 4 0 25 -19 47 -42 l39 -42 46 12 c50 13 146 15 246
4 46 -6 72 -14 89 -30 13 -12 27 -22 31 -22 4 0 16 -13 25 -29 10 -16 26 -33
36 -38 44 -20 278 -246 278 -268 0 -8 9 -15 20 -15 19 0 74 -64 88 -100 3 -8
14 -35 25 -59 10 -25 26 -67 34 -94 19 -65 9 -76 -52 -59 -25 7 -50 12 -55 12
-18 0 -10 -24 18 -53 25 -28 26 -29 5 -23 -33 10 -32 -31 1 -44 38 -14 42 -31
13 -55 -15 -11 -27 -26 -27 -33 0 -14 46 -17 54 -3 3 4 27 14 53 21 27 8 58
25 70 38 12 14 34 26 49 28 16 2 33 9 39 16 6 7 19 18 30 24 15 8 23 28 30 75
10 61 12 63 40 64 30 0 33 4 78 105 l16 35 0 -43 c1 -50 32 -102 61 -102 26 0
50 37 50 77 0 17 5 44 11 60 16 42 27 12 27 -72 0 -75 16 -173 32 -189 17 -17
55 20 68 68 9 36 16 46 33 46 15 0 25 11 36 40 16 41 36 51 50 26 4 -8 30 -37
57 -66 39 -42 53 -50 72 -46 36 9 40 46 11 116 -22 55 -26 101 -8 100 3 0 32
-25 65 -55 65 -61 88 -67 112 -30 15 23 14 27 -12 82 -15 32 -36 67 -45 78
-18 21 -18 21 24 15 48 -7 107 -30 107 -42 0 -4 13 -8 30 -8 41 0 59 33 30 57
-11 10 -30 20 -43 23 -20 5 -87 81 -87 100 0 10 40 1 58 -13 6 -5 12 -7 12 -3
0 3 20 -6 44 -19 52 -29 76 -24 76 15 0 42 -10 60 -32 60 -11 0 -33 14 -49 31
l-29 31 44 -6 c25 -4 59 -14 75 -22 38 -19 51 -12 51 30 0 22 -8 40 -25 56
-51 48 -19 61 59 24 39 -19 53 -18 66 6 15 28 5 54 -38 96 -41 40 -39 40 53
14 66 -18 70 -18 71 15 1 39 -10 52 -67 76 -26 12 -55 29 -65 40 -17 18 -16
19 19 19 19 0 70 -5 112 -11 83 -11 109 -3 103 33 -2 14 -22 26 -72 44 -38 13
-71 25 -73 27 -1 2 3 12 11 22 11 16 27 18 110 18 92 -1 96 0 102 22 6 26 -10
64 -29 66 -7 1 -21 1 -32 0 -26 -1 -64 27 -49 37 6 4 13 15 17 24 3 9 22 20
42 24 25 4 37 13 41 29 10 39 1 60 -26 61 -43 1 -50 4 -50 17 0 18 48 37 93
37 40 0 55 10 76 49 12 21 10 26 -13 48 -14 13 -26 26 -26 30 0 3 14 21 30 40
24 27 28 38 20 52 -10 21 -54 33 -68 19 -10 -10 -104 1 -97 12 3 4 19 10 36
14 40 8 59 23 59 48 0 29 -28 65 -57 72 l-25 7 21 18 c12 10 39 21 60 25 26 4
42 12 46 25 12 39 -2 48 -93 55 -47 4 -89 9 -93 12 -7 4 7 21 73 90 29 31 20
58 -21 62 -52 5 -83 42 -36 42 14 0 28 7 31 15 4 9 11 14 18 13 19 -3 82 41
107 75 31 41 65 75 107 107 19 14 40 31 47 38 8 7 29 15 47 19 18 3 38 9 43
13 6 4 25 11 43 15 17 3 32 11 32 16 0 11 56 40 63 33 10 -10 37 54 37 88 0
23 -7 38 -22 48 -34 22 -58 20 -98 -6 -20 -13 -60 -31 -90 -40 -60 -18 -180
-27 -180 -13 0 5 -17 9 -38 9 -21 0 -48 7 -61 16 -12 9 -35 18 -49 19 -55 5
-82 17 -82 36 0 28 -32 40 -69 26 -38 -14 -63 2 -41 27 17 22 5 50 -20 43 -10
-3 -27 1 -37 9 -20 15 -24 10 41 61 26 21 26 23 12 57 l-15 35 -35 -14 c-46
-19 -48 -19 -44 8 2 16 14 26 46 35 34 11 42 18 42 38 0 42 -58 53 -85 17 -14
-19 -121 -43 -134 -30 -14 14 3 44 49 87 48 45 61 71 49 93 -14 24 -38 21 -60
-7 -11 -14 -34 -29 -52 -35 -63 -21 -157 -39 -157 -31 0 4 21 33 46 64 25 32
44 64 42 74 -6 26 -53 18 -110 -18 -27 -16 -54 -30 -59 -30 -5 0 -33 -16 -62
-35 -75 -51 -93 -46 -62 16 9 16 13 34 10 39 -3 6 8 31 26 56 17 25 33 63 36
83 4 32 2 39 -15 43 -12 4 -27 -1 -36 -11 -45 -49 -133 -145 -144 -157 -16
-16 -32 -18 -32 -4 0 5 6 27 14 47 25 71 46 150 46 177 0 37 -44 58 -65 30 -8
-10 -15 -28 -15 -40 0 -11 -10 -31 -22 -44 -15 -16 -21 -34 -20 -60 2 -27 -2
-39 -14 -44 -9 -4 -18 -5 -20 -3 -2 2 1 30 6 63 15 89 13 111 -9 117 -25 6
-61 -19 -61 -43 0 -10 -16 -36 -36 -57 -20 -21 -50 -53 -66 -70 -17 -18 -34
-30 -39 -27 -5 3 -9 48 -9 101 0 75 -4 100 -16 114 -19 22 -54 9 -54 -19 0 -9
-12 -50 -26 -90 -32 -86 -49 -90 -73 -17 -27 82 -64 155 -77 155 -7 0 -17 -7
-22 -16z m201 -287 c9 -25 -3 -77 -19 -77 -18 0 -36 73 -28 116 l6 35 17 -28
c10 -15 20 -36 24 -46z m505 13 c-5 -17 -14 -30 -19 -30 -13 0 -11 44 3 58 19
19 28 4 16 -28z m-733 10 c3 -5 1 -10 -4 -10 -6 0 -11 5 -11 10 0 6 2 10 4 10
3 0 8 -4 11 -10z m950 -60 c-3 -5 -11 -10 -16 -10 -6 0 -7 5 -4 10 3 6 11 10
16 10 6 0 7 -4 4 -10z m-597 -73 c6 -29 12 -58 12 -65 0 -20 -29 -13 -44 11
-12 18 -13 30 -4 65 6 23 13 42 17 42 4 0 12 -24 19 -53z m-185 -17 c18 -30
14 -36 -17 -24 -16 6 -23 54 -8 54 4 0 16 -13 25 -30z m-129 4 c4 -10 1 -14
-6 -12 -15 5 -23 28 -10 28 5 0 13 -7 16 -16z m451 -22 c-6 -29 -40 -70 -50
-60 -3 3 7 26 21 52 29 51 40 54 29 8z m-505 14 c0 -2 3 -11 6 -20 4 -12 0
-16 -15 -16 -14 0 -21 6 -21 20 0 11 7 20 15 20 8 0 15 -2 15 -4z m616 -28
c-3 -13 -6 -29 -6 -35 0 -7 -11 -13 -25 -13 -30 0 -31 9 -4 44 25 32 43 34 35
4z m409 -28 c-3 -5 -14 -10 -23 -10 -15 0 -15 2 -2 10 20 13 33 13 25 0z
m-1145 -20 c-19 -12 -30 -12 -30 -1 0 10 31 20 40 14 2 -2 -2 -8 -10 -13z
m815 -50 c8 -13 -73 -90 -96 -90 -15 0 -19 7 -19 35 0 30 3 35 24 35 13 0 29
7 36 15 14 17 46 20 55 5z m-592 -55 c-3 -9 -8 -14 -10 -11 -3 3 -2 9 2 15 9
16 15 13 8 -4z m1002 -14 c-14 -12 -75 -22 -75 -12 0 12 19 19 55 20 17 1 25
-3 20 -8z m176 -39 c-5 -10 -19 -26 -30 -36 -21 -19 -21 -19 -21 1 0 10 9 29
21 41 23 25 44 21 30 -6z m-1298 -16 c-25 -34 -59 -35 -35 0 8 13 45 34 50 29
2 -2 -4 -15 -15 -29z m683 -33 c-10 -10 -19 5 -10 18 6 11 8 11 12 0 2 -7 1
-15 -2 -18z m-546 -12 c0 -10 -28 -41 -36 -41 -2 0 -4 11 -4 25 0 18 5 25 20
25 11 0 20 -4 20 -9z m85 -10 c3 -5 1 -12 -5 -16 -5 -3 -10 1 -10 9 0 18 6 21
15 7z m585 -21 c0 -5 -2 -10 -4 -10 -3 0 -8 5 -11 10 -3 6 -1 10 4 10 6 0 11
-4 11 -10z m500 -21 c0 -12 -29 -24 -37 -16 -3 4 -3 13 0 21 6 16 37 11 37 -5z
m60 -120 c0 -5 -9 -9 -20 -9 -10 0 -30 -5 -44 -12 -18 -8 -32 -8 -48 -1 -21
10 -20 11 17 17 22 4 49 11 60 15 22 9 35 5 35 -10z m390 -40 c50 -2 80 -14
80 -31 0 -6 7 -19 15 -28 13 -15 8 -22 -54 -73 -37 -31 -80 -59 -95 -63 -14
-3 -26 -10 -26 -14 0 -4 -18 -10 -41 -12 -50 -5 -70 13 -45 41 26 28 17 55
-19 59 -47 5 -50 17 -19 65 30 49 65 66 124 61 19 -2 55 -4 80 -5z m-570 -84
c0 -8 -4 -15 -10 -15 -5 0 -10 7 -10 15 0 8 5 15 10 15 6 0 10 -7 10 -15z
m278 8 c-2 -5 -10 -20 -17 -35 -20 -39 -8 -58 34 -58 34 0 46 -12 24 -25 -19
-13 -4 -38 30 -50 46 -15 50 -32 10 -40 -18 -4 -41 -16 -53 -26 -11 -11 -26
-19 -33 -19 -7 0 -13 -4 -13 -8 0 -5 -19 -15 -42 -22 -24 -8 -48 -18 -55 -22
-28 -22 -153 -78 -172 -78 -12 0 -21 -4 -21 -10 0 -5 -9 -10 -20 -10 -32 0
-111 -30 -133 -51 -12 -10 -25 -19 -29 -19 -5 0 -27 -9 -49 -19 -21 -11 -57
-22 -79 -26 -22 -4 -40 -11 -40 -16 0 -5 -7 -9 -15 -9 -18 0 -157 -45 -186
-60 -12 -7 -19 -8 -15 -2 3 5 -11 1 -31 -9 -21 -11 -44 -19 -53 -19 -9 0 -21
-5 -28 -12 -6 -6 -40 -12 -75 -13 -65 -2 -87 -8 -87 -26 0 -24 -33 -41 -76
-41 -38 1 -50 -4 -82 -34 -48 -45 -77 -53 -103 -26 -10 12 -19 30 -19 41 0 11
-4 21 -9 23 -5 2 -11 31 -13 66 -1 35 -8 68 -15 74 -18 15 -16 38 5 45 9 4 19
9 22 12 10 12 81 41 100 41 11 0 20 5 20 10 0 6 9 10 20 10 11 0 20 5 20 10 0
6 7 10 15 10 16 0 96 37 105 49 8 10 103 41 124 41 23 0 89 22 96 32 7 9 117
38 143 38 10 0 31 8 45 18 37 26 81 42 120 45 17 1 32 7 32 12 0 12 33 27 120
56 36 11 75 27 88 35 12 8 26 13 30 10 5 -3 21 4 38 15 16 10 39 19 51 19 13
0 52 14 88 31 36 17 72 28 80 25 8 -3 29 1 47 9 36 16 62 19 56 8z m-739 -109
c8 -7 -12 -24 -30 -24 -13 0 -19 7 -19 21 0 16 4 19 23 13 12 -3 24 -8 26 -10z
m-259 -4 c0 -5 -4 -10 -10 -10 -5 0 -10 5 -10 10 0 6 5 10 10 10 6 0 10 -4 10
-10z m-115 -101 c10 -15 2 -19 -23 -12 -12 3 -19 9 -16 14 7 12 31 11 39 -2z
m105 -38 c0 -5 -6 -14 -14 -20 -12 -10 -13 -8 -9 8 5 21 23 30 23 12z m1135
-311 c19 -7 19 -8 2 -15 -10 -4 -23 -3 -28 2 -6 6 -30 8 -53 6 -26 -3 -46 -1
-50 6 -8 13 97 14 129 1z m-337 -22 c-16 -24 -58 -37 -58 -19 0 6 -9 11 -20
11 -36 0 -21 19 18 23 81 8 76 9 60 -15z m-1379 -12 c8 -13 10 -29 7 -35 -4
-6 -1 -11 7 -11 13 0 43 -39 75 -97 15 -28 16 -85 2 -99 -8 -8 -8 -19 0 -38
24 -64 63 -72 112 -23 36 36 51 34 97 -11 16 -17 30 -22 46 -18 13 3 36 1 51
-4 38 -15 29 -22 -148 -120 -60 -32 -155 -25 -195 15 -29 29 -53 129 -53 228
0 76 -1 80 -32 108 -24 23 -31 38 -30 65 2 59 39 83 61 40z m-155 -68 c-4 -7
-2 -8 5 -4 18 12 52 -32 45 -59 -3 -13 -1 -26 5 -29 6 -4 11 -22 11 -40 0 -17
4 -36 9 -41 18 -19 41 -134 41 -204 0 -69 1 -73 40 -115 22 -24 40 -52 40 -62
0 -35 32 -44 80 -23 61 27 62 24 16 -26 -24 -25 -47 -45 -54 -45 -15 0 -26
-40 -13 -53 7 -7 25 -5 62 6 70 23 78 21 46 -9 -32 -29 -148 -94 -169 -94 -27
0 -48 -24 -42 -47 7 -27 27 -29 67 -8 15 8 44 19 63 24 30 8 34 7 34 -10 0
-10 -4 -19 -9 -19 -4 0 -14 -20 -21 -45 -7 -24 -19 -50 -26 -56 -8 -6 -14 -20
-14 -30 0 -15 7 -19 38 -18 20 0 51 9 67 20 44 28 55 32 63 25 8 -8 -39 -97
-79 -148 -17 -21 -26 -43 -23 -52 8 -20 28 -20 44 -1 23 28 91 78 97 71 8 -8
-64 -116 -78 -116 -6 0 -9 -12 -7 -27 4 -36 39 -38 53 -5 8 18 16 22 35 19 18
-4 31 2 47 21 41 48 34 15 -17 -86 -44 -84 -50 -103 -41 -121 6 -11 9 -32 5
-46 -5 -21 -3 -25 14 -25 12 0 25 6 29 13 4 6 18 21 31 32 20 16 25 17 32 5
13 -22 2 -87 -26 -148 -13 -29 -24 -55 -24 -59 0 -14 -34 -43 -50 -43 -10 0
-23 13 -30 30 -7 17 -18 30 -24 30 -20 0 -62 52 -89 110 -45 97 -57 128 -57
147 0 40 -24 72 -60 78 -53 10 -80 28 -149 99 -35 36 -67 66 -72 66 -16 0 -79
76 -84 102 -4 15 -15 30 -25 33 -12 4 -24 22 -30 44 -11 43 -34 69 -45 51 -3
-6 -10 -8 -14 -6 -4 3 -18 -4 -30 -15 -18 -17 -35 -20 -94 -20 -40 0 -85 4
-102 9 -16 5 -36 7 -43 4 -16 -5 -63 17 -75 35 -4 7 -15 13 -22 13 -8 0 -15 5
-15 11 0 14 51 59 61 54 4 -3 29 2 55 11 104 32 204 34 204 3 0 -18 42 -20 61
-3 24 22 24 57 -1 113 l-20 44 21 60 c12 33 32 72 45 86 13 14 28 36 34 50 6
15 27 37 46 51 20 14 51 40 69 58 19 17 39 32 45 32 5 0 10 8 10 19 0 10 9 21
20 24 39 10 15 36 -25 27 -5 -1 -23 -2 -38 -2 -15 0 -50 -10 -76 -24 -27 -13
-54 -24 -60 -24 -6 0 -11 -4 -11 -9 0 -11 -65 -53 -77 -49 -4 1 -20 -5 -34
-15 -15 -10 -44 -20 -65 -22 -21 -3 -45 -12 -54 -20 -10 -9 -24 -13 -32 -10
-9 4 -18 0 -21 -9 -3 -8 -23 -18 -44 -22 -21 -4 -49 -12 -63 -19 -14 -7 -43
-21 -65 -30 -22 -9 -47 -20 -56 -25 -21 -11 -71 -20 -131 -24 -26 -2 -53 -8
-60 -13 -21 -17 -58 -25 -58 -14 0 6 -6 9 -12 7 -7 -3 -28 -7 -47 -10 -29 -5
-32 -4 -21 10 11 13 10 16 -8 20 -62 17 -45 160 23 184 16 6 48 20 70 31 22
10 49 19 61 19 12 0 41 13 65 30 24 16 55 30 70 30 14 0 29 4 35 8 21 18 124
53 135 46 7 -4 9 -3 6 3 -6 9 41 34 100 53 54 18 128 46 148 57 40 21 125 44
136 37 7 -4 9 -3 6 4 -7 11 85 28 100 19 4 -3 24 3 43 13 36 18 56 17 44 -2z
m1051 -58 c-3 -5 -11 -10 -16 -10 -6 0 -7 5 -4 10 3 6 11 10 16 10 6 0 7 -4 4
-10z m195 -5 c0 -8 -6 -15 -14 -15 -17 0 -28 14 -19 24 12 12 33 6 33 -9z
m540 -15 c0 -5 -9 -10 -19 -10 -11 0 -23 5 -26 10 -4 6 5 10 19 10 14 0 26 -4
26 -10z m-743 -42 c18 -20 6 -29 -24 -17 -27 10 -27 12 -11 39 9 13 14 16 17
8 2 -7 10 -20 18 -30z m874 -58 c26 -14 24 -24 -8 -55 -30 -27 -67 -32 -107
-14 -27 13 -25 39 4 39 10 0 28 9 41 20 27 22 42 24 70 10z m-721 -10 c0 -5
-5 -10 -11 -10 -5 0 -7 5 -4 10 3 6 8 10 11 10 2 0 4 -4 4 -10z m103 -36 c9
-4 17 -13 17 -21 0 -9 -6 -13 -14 -10 -7 3 -18 1 -24 -5 -6 -6 -16 -7 -25 -2
-18 11 -4 59 15 50 7 -3 21 -9 31 -12z m-653 -4 c0 -5 -4 -10 -10 -10 -5 0
-10 5 -10 10 0 6 5 10 10 10 6 0 10 -4 10 -10z m220 -19 c0 -10 -30 -24 -37
-17 -3 3 -2 9 2 15 8 13 35 15 35 2z m259 -10 c21 -16 22 -20 10 -39 -16 -25
-31 -27 -62 -10 -37 19 -49 41 -30 56 23 17 54 15 82 -7z m-535 -108 c-56 -61
-69 -73 -81 -73 -14 0 -9 36 8 56 6 8 20 14 30 14 10 0 24 7 31 15 7 8 18 14
25 15 7 0 1 -12 -13 -27z m349 -7 c3 -7 23 -18 44 -23 48 -11 49 -32 3 -55
-47 -23 -47 -23 -54 17 -6 29 -12 35 -41 41 -20 3 -35 12 -35 20 0 19 76 19
83 0z m-128 -16 c-3 -5 -18 -10 -33 -9 -24 0 -25 1 -7 9 28 12 47 12 40 0z
m-92 -77 c8 -7 -23 -32 -40 -33 -7 0 -13 6 -13 14 0 20 39 34 53 19z m-229
-128 c-7 -18 -43 -39 -51 -31 -9 8 27 46 43 46 8 0 11 -6 8 -15z m216 -19 c0
-7 -9 -16 -20 -19 -19 -5 -28 12 -13 26 11 12 33 7 33 -7z m850 10 c0 -2 -7
-6 -15 -10 -8 -3 -15 -1 -15 4 0 6 7 10 15 10 8 0 15 -2 15 -4z m-467 -80 c18
-7 44 -18 58 -24 16 -6 28 -20 31 -36 6 -29 -3 -34 -22 -11 -7 8 -25 15 -41
15 -16 0 -29 4 -29 9 0 5 -13 12 -30 16 -26 6 -28 9 -20 26 13 23 13 23 53 5z
m-412 -24 c-6 -12 -20 -23 -30 -27 -11 -3 -22 -13 -25 -21 -8 -20 -48 1 -44
23 2 14 95 54 106 47 2 -1 -1 -11 -7 -22z m754 20 c15 -10 37 -53 31 -59 -8
-9 -24 6 -40 37 -14 29 -11 37 9 22z m-645 -57 c6 -8 9 -19 5 -25 -9 -15 -53
-32 -91 -34 l-31 -3 25 39 c28 41 68 52 92 23z m-430 1 c0 -3 -4 -8 -10 -11
-5 -3 -10 -1 -10 4 0 6 5 11 10 11 6 0 10 -2 10 -4z m470 -91 c-26 -27 -40
-32 -40 -12 0 13 51 49 59 41 2 -2 -6 -15 -19 -29z m-500 -53 c0 -13 -39 -46
-46 -39 -9 9 16 47 31 47 8 0 15 -4 15 -8z m505 -61 c-8 -17 -20 -31 -25 -31
-14 0 -13 8 13 52 26 47 37 27 12 -21z m107 26 c-5 -7 -13 -30 -16 -51 -5 -25
-10 -35 -15 -27 -5 7 -5 25 -2 39 8 33 35 76 39 62 2 -6 0 -16 -6 -23z m-402
18 c0 -9 -42 -47 -47 -42 -7 8 21 47 34 47 7 0 13 -2 13 -5z m188 -47 c-6 -17
-38 -23 -38 -8 0 6 5 8 10 5 6 -3 10 -1 10 4 0 6 5 11 11 11 6 0 9 -6 7 -12z
m822 -28 l34 -30 -31 0 c-33 0 -63 22 -63 46 0 22 22 16 60 -16z m-906 -87
c-9 -52 -34 -113 -46 -113 -5 0 -20 -12 -33 -26 -31 -33 -35 -9 -5 29 11 14
20 40 20 58 0 22 9 42 27 61 36 38 45 35 37 -9z m216 -31 c15 -38 12 -43 -18
-35 -27 7 -39 47 -22 69 15 17 22 12 40 -34z m560 31 c36 -25 53 -43 47 -49
-9 -10 -105 26 -110 41 -12 29 25 34 63 8z m-931 -47 c-7 -14 -19 -26 -26 -26
-15 0 -11 11 16 42 20 23 24 17 10 -16z m501 -37 c0 -5 -7 -9 -15 -9 -8 0 -15
7 -15 15 0 9 6 12 15 9 8 -4 15 -10 15 -15z m328 -13 c18 -19 32 -37 32 -39 0
-10 -64 13 -78 27 -14 14 -10 46 5 46 5 0 23 -15 41 -34z m-290 -139 c2 -12
-1 -15 -12 -11 -19 7 -22 38 -3 32 6 -3 13 -12 15 -21z m-281 -71 c-4 -9 -11
-16 -17 -16 -15 0 -24 26 -16 47 6 15 8 15 23 1 9 -9 13 -24 10 -32z m419 -13
c46 -51 88 -112 82 -118 -8 -8 -128 124 -128 140 0 23 9 18 46 -22z m-86 -179
c0 -8 -4 -12 -10 -9 -5 3 -10 10 -10 16 0 5 5 9 10 9 6 0 10 -7 10 -16z"/>
<path d="M1784 2813 c-32 -6 -55 -37 -70 -92 -10 -40 -10 -56 1 -87 8 -22 14
-35 15 -30 0 6 9 0 20 -12 25 -26 20 -26 59 -6 38 19 54 53 53 113 -1 44 -29
114 -47 117 -5 0 -20 -1 -31 -3z"/>
</g>
</svg>
